<svg aria-hidden="true" style="position: absolute; width: 0; height: 0; overflow: hidden;" version="1.1" xmlns="http://www.w3.org/2000/svg" xmlns:xlink="http://www.w3.org/1999/xlink">
<defs>
<symbol id="icon-facebook-1" viewBox="0 0 32 32">
<path d="M21.33 5.313h2.921v-5.088c-0.504-0.069-2.237-0.225-4.256-0.225-4.212 0-7.097 2.649-7.097 7.519v4.481h-4.648v5.688h4.648v14.312h5.699v-14.311h4.46l0.708-5.688h-5.169v-3.919c0.001-1.644 0.444-2.769 2.735-2.769z"></path>
</symbol>
<symbol id="icon-twitter-1" viewBox="0 0 32 32">
<path d="M32 6.078c-1.19 0.522-2.458 0.868-3.78 1.036 1.36-0.812 2.398-2.088 2.886-3.626-1.268 0.756-2.668 1.29-4.16 1.588-1.204-1.282-2.92-2.076-4.792-2.076-3.632 0-6.556 2.948-6.556 6.562 0 0.52 0.044 1.020 0.152 1.496-5.454-0.266-10.28-2.88-13.522-6.862-0.566 0.982-0.898 2.106-0.898 3.316 0 2.272 1.17 4.286 2.914 5.452-1.054-0.020-2.088-0.326-2.964-0.808 0 0.020 0 0.046 0 0.072 0 3.188 2.274 5.836 5.256 6.446-0.534 0.146-1.116 0.216-1.72 0.216-0.42 0-0.844-0.024-1.242-0.112 0.85 2.598 3.262 4.508 6.13 4.57-2.232 1.746-5.066 2.798-8.134 2.798-0.538 0-1.054-0.024-1.57-0.090 2.906 1.874 6.35 2.944 10.064 2.944 12.072 0 18.672-10 18.672-18.668 0-0.29-0.010-0.57-0.024-0.848 1.302-0.924 2.396-2.078 3.288-3.406z"></path>
</symbol>
<symbol id="icon-linkedin-1" viewBox="0 0 32 32">
<path d="M31.992 32v-0.001h0.008v-11.736c0-5.741-1.236-10.164-7.948-10.164-3.227 0-5.392 1.771-6.276 3.449h-0.093v-2.913h-6.364v21.364h6.627v-10.579c0-2.785 0.528-5.479 3.977-5.479 3.399 0 3.449 3.179 3.449 5.657v10.401h6.62z"></path>
<path d="M0.528 10.636h6.635v21.364h-6.635v-21.364z"></path>
<path d="M3.843 0c-2.121 0-3.843 1.721-3.843 3.843s1.721 3.879 3.843 3.879c2.121 0 3.843-1.757 3.843-3.879-0.001-2.121-1.723-3.843-3.843-3.843v0z"></path>
</symbol>
<symbol id="icon-instagram-2" viewBox="0 0 32 32">
<path  d="M31.969 9.408c-0.075-1.7-0.35-2.869-0.744-3.882-0.406-1.075-1.032-2.038-1.851-2.838-0.8-0.813-1.769-1.444-2.832-1.844-1.019-0.394-2.182-0.669-3.882-0.744-1.713-0.081-2.257-0.1-6.601-0.1s-4.888 0.019-6.595 0.094c-1.7 0.075-2.869 0.35-3.882 0.744-1.075 0.406-2.038 1.031-2.838 1.85-0.813 0.8-1.444 1.769-1.844 2.832-0.394 1.019-0.669 2.182-0.744 3.882-0.081 1.713-0.1 2.257-0.1 6.601s0.019 4.888 0.094 6.595c0.075 1.7 0.35 2.869 0.744 3.882 0.406 1.075 1.038 2.038 1.85 2.838 0.8 0.813 1.769 1.444 2.832 1.844 1.019 0.394 2.182 0.669 3.882 0.744 1.706 0.075 2.25 0.094 6.595 0.094s4.888-0.019 6.595-0.094c1.7-0.075 2.869-0.35 3.882-0.744 2.151-0.832 3.851-2.532 4.682-4.682 0.394-1.019 0.669-2.182 0.744-3.882 0.075-1.707 0.094-2.251 0.094-6.595s-0.006-4.888-0.081-6.595zM29.087 22.473c-0.069 1.563-0.331 2.407-0.55 2.969-0.538 1.394-1.644 2.5-3.038 3.038-0.563 0.219-1.413 0.481-2.969 0.55-1.688 0.075-2.194 0.094-6.464 0.094s-4.782-0.019-6.464-0.094c-1.563-0.069-2.407-0.331-2.969-0.55-0.694-0.256-1.325-0.663-1.838-1.194-0.531-0.519-0.938-1.144-1.194-1.838-0.219-0.563-0.481-1.413-0.55-2.969-0.075-1.688-0.094-2.194-0.094-6.464s0.019-4.782 0.094-6.464c0.069-1.563 0.331-2.407 0.55-2.969 0.256-0.694 0.663-1.325 1.2-1.838 0.519-0.531 1.144-0.938 1.838-1.194 0.563-0.219 1.413-0.481 2.969-0.55 1.688-0.075 2.194-0.094 6.464-0.094 4.276 0 4.782 0.019 6.464 0.094 1.563 0.069 2.407 0.331 2.969 0.55 0.694 0.256 1.325 0.662 1.838 1.194 0.531 0.519 0.938 1.144 1.194 1.838 0.219 0.563 0.481 1.413 0.55 2.969 0.075 1.688 0.094 2.194 0.094 6.464s-0.019 4.77-0.094 6.458z"></path>
<path  d="M16.059 7.783c-4.538 0-8.22 3.682-8.22 8.22s3.682 8.22 8.22 8.22c4.539 0 8.22-3.682 8.22-8.22s-3.682-8.22-8.22-8.22zM16.059 21.335c-2.944 0-5.332-2.388-5.332-5.332s2.388-5.332 5.332-5.332c2.944 0 5.332 2.388 5.332 5.332s-2.388 5.332-5.332 5.332z"></path>
<path  d="M26.524 7.458c0 1.060-0.859 1.919-1.919 1.919s-1.919-0.859-1.919-1.919c0-1.060 0.859-1.919 1.919-1.919s1.919 0.859 1.919 1.919z"></path>
</symbol>
<symbol id="icon-menu_40px" viewBox="0 0 32 32">
    <path fill="#fff" style="fill: var(--color1, #fff)" d="M6.4 11.734v-2.134h19.2v2.134h-19.2zM6.4 17.066h19.2v-2.133h-19.2v2.133zM6.4 22.4h19.2v-2.134h-19.2v2.134z"></path>
    </symbol>
    <symbol id="icon-mail" viewBox="0 0 32 32">
        <path fill="none" stroke="#9da4bd" style="stroke: var(--color1, #9da4bd)" stroke-linejoin="round" stroke-linecap="round" stroke-miterlimit="4" stroke-width="1.3333" d="M6.4 6.667h19.2c1.32 0 2.4 1.050 2.4 2.333v14c0 1.283-1.080 2.333-2.4 2.333h-19.2c-1.32 0-2.4-1.050-2.4-2.333v-14c0-1.283 1.080-2.333 2.4-2.333z"></path>
        <path fill="none" stroke="#9da4bd" style="stroke: var(--color1, #9da4bd)" stroke-linejoin="round" stroke-linecap="round" stroke-miterlimit="4" stroke-width="1.3333" d="M26.667 9.333l-10.667 8-10.667-8"></path>
        </symbol>
        <symbol id="icon-map-pin" viewBox="0 0 32 32">
            <path fill="none" stroke="#9da4bd" style="stroke: var(--color1, #9da4bd)" stroke-linejoin="round" stroke-linecap="round" stroke-miterlimit="4" stroke-width="1.3333" d="M26.667 13.818c0 7.636-10.667 14.182-10.667 14.182s-10.667-6.545-10.667-14.182c0-5.422 4.776-9.818 10.667-9.818s10.667 4.396 10.667 9.818v0z"></path>
            <path fill="none" stroke="#9da4bd" style="stroke: var(--color1, #9da4bd)" stroke-linejoin="round" stroke-linecap="round" stroke-miterlimit="4" stroke-width="1.3333" d="M16 18.667c2.209 0 4-1.791 4-4s-1.791-4-4-4-4 1.791-4 4c0 2.209 1.791 4 4 4z"></path>
            </symbol>
            <symbol id="icon-phone" viewBox="0 0 32 32">
                <path fill="none" stroke="#9da4bd" style="stroke: var(--color1, #9da4bd)" stroke-linejoin="round" stroke-linecap="round" stroke-miterlimit="4" stroke-width="1.3333" d="M26.666 21.337v3.218c0.002 0.604-0.25 1.181-0.695 1.589s-1.042 0.61-1.643 0.556c-3.301-0.359-6.471-1.487-9.257-3.293-2.592-1.647-4.789-3.844-6.436-6.436-1.813-2.798-2.941-5.984-3.293-9.3-0.054-0.6 0.146-1.195 0.552-1.639s0.98-0.698 1.582-0.699h3.218c1.077-0.011 1.995 0.779 2.145 1.845 0.136 1.030 0.388 2.041 0.751 3.014 0.295 0.784 0.106 1.668-0.483 2.263l-1.362 1.362c1.527 2.685 3.75 4.909 6.436 6.436l1.362-1.362c0.595-0.589 1.479-0.777 2.263-0.483 0.973 0.363 1.984 0.615 3.014 0.751 1.079 0.152 1.872 1.088 1.845 2.177z"></path>
                </symbol>
                <symbol id="icon-copy" viewBox="0 0 32 32">
                    <path fill="#9da4bd" style="fill: var(--color1, #9da4bd)" d="M15.808 11.424c2.048 0.096 2.576 1.84 2.608 2.656h2.864c-0.128-3.168-2.384-5.104-5.52-5.104-3.536 0-6.16 2.224-6.16 7.248 0 3.104 1.488 6.784 6.144 6.784 3.552 0 5.456-2.64 5.504-4.72h-2.864c-0.048 0.944-0.72 2.208-2.608 2.304-2.096-0.064-2.976-1.696-2.976-4.368 0-4.624 2.048-4.768 3.008-4.8zM16 0c-8.832 0-16 7.168-16 16s7.168 16 16 16c8.832 0 16-7.168 16-16s-7.168-16-16-16zM16 28.8c-7.056 0-12.8-5.744-12.8-12.8s5.744-12.8 12.8-12.8c7.056 0 12.8 5.744 12.8 12.8s-5.744 12.8-12.8 12.8z"></path>
                    </symbol>
                    <symbol id="icon-close_40px" viewBox="0 0 32 32">
                        <path d="M23.733 10.304l-1.504-1.504-5.963 5.963-5.963-5.963-1.504 1.504 5.963 5.963-5.963 5.963 1.504 1.504 5.963-5.963 5.963 5.963 1.504-1.504-5.963-5.963 5.963-5.963z"></path>
                        </symbol>
                        <symbol id="icon-Logo" viewBox="0 0 39 32">
                            <path d="M22.215 9.64l-0.73-0.571c-0.114-0.095-0.26-0.139-0.406-0.124s-0.28 0.088-0.374 0.204l-10.097 11.897 0.156 0.177 2.501-2.366c-0.083-0.034-0.152-0.098-0.195-0.179s-0.056-0.175-0.038-0.265c0.018-0.090 0.066-0.171 0.136-0.229s0.158-0.088 0.247-0.087c0.081 0 0.16 0.027 0.225 0.076s0.113 0.119 0.137 0.198l3.297-3.137c0.050-0.042 0.113-0.064 0.178-0.064s0.128 0.023 0.178 0.064l0.167 0.126c0.056 0.042 0.126 0.060 0.195 0.052s0.133-0.043 0.178-0.097l4.31-4.96c0.046-0.049 0.081-0.108 0.102-0.172s0.030-0.133 0.023-0.2-0.027-0.133-0.060-0.192c-0.033-0.059-0.078-0.11-0.133-0.149z"></path>
                            <path d="M26.959 12.989c-2.209 1.613-4.685 2.804-7.306 3.514-2.602 0.679-5.265 1.085-7.947 1.211 0.054 0.406 0.151 0.804 0.29 1.189 1.515 1.406 12.92-0.994 15.148-3.771 0.473-0.577-0.184-2.143-0.184-2.143zM13.416 18.857c-0.075 0-0.148-0.023-0.21-0.066s-0.111-0.103-0.139-0.174c-0.029-0.071-0.036-0.149-0.022-0.224s0.051-0.145 0.104-0.199 0.12-0.091 0.194-0.106c0.073-0.015 0.15-0.007 0.219 0.022s0.128 0.079 0.17 0.143 0.064 0.139 0.064 0.216c0.001 0.051-0.008 0.102-0.027 0.15s-0.047 0.091-0.082 0.127-0.077 0.065-0.124 0.084c-0.046 0.019-0.096 0.029-0.146 0.028z"></path>
                            <path d="M2.639 12.166l0.089-0.394 1.448 0.337c0.119 0.226 0.193 0.475 0.217 0.731 0.028 0.271 0.011 0.546-0.050 0.811-0.072 0.369-0.237 0.712-0.479 0.994-0.23 0.267-0.526 0.464-0.858 0.571-0.341 0.108-0.704 0.122-1.053 0.040-0.349-0.077-0.671-0.251-0.93-0.503-0.255-0.242-0.439-0.553-0.529-0.897-0.1-0.374-0.1-0.769 0-1.143 0.060-0.28 0.167-0.547 0.317-0.789 0.142-0.22 0.333-0.402 0.557-0.531l0.2 0.314c-0.192 0.121-0.357 0.282-0.483 0.473s-0.213 0.408-0.252 0.635c-0.069 0.296-0.063 0.604 0.017 0.897 0.075 0.278 0.223 0.529 0.429 0.726 0.211 0.21 0.476 0.354 0.763 0.417 0.279 0.080 0.573 0.080 0.852 0 0.267-0.090 0.507-0.25 0.696-0.463 0.195-0.23 0.329-0.507 0.39-0.806 0.092-0.362 0.068-0.744-0.067-1.091l-1.275-0.331z"></path>
                            <path d="M5.792 8.572l-1.298 1.777 0.557 1.023-0.256 0.354-2.061-3.857 0.239-0.337 4.193 0.926-0.262 0.354-1.114-0.24zM5.424 8.48l-2.228-0.514 1.114 2.051 1.114-1.537z"></path>
                            <path d="M5.424 4.886l0.334-0.257 2.122 2.914 1.749-1.343 0.212 0.291-2.077 1.594-2.339-3.2z"></path>
                            <path d="M8.932 2.503l0.373-0.171 1.47 3.303 1.988-0.926 0.145 0.331-2.361 1.103-1.615-3.64z"></path>
                            <path d="M16.272 3.817l0.084 0.36-2.684 0.646-0.891-3.897 2.606-0.623 0.078 0.354-2.228 0.531 0.317 1.383 1.96-0.474 0.084 0.354-1.966 0.469 0.334 1.446 2.306-0.549z"></path>
                            <path d="M20.098 3.96l-0.93-1.257c-0.104 0.006-0.208 0.006-0.312 0l-1.047 0.034 0.039 1.269h-0.412l-0.128-4 1.481-0.006c0.419-0.040 0.838 0.076 1.181 0.326 0.145 0.119 0.261 0.271 0.34 0.443s0.119 0.361 0.117 0.551c0.016 0.282-0.056 0.563-0.206 0.8-0.16 0.228-0.386 0.398-0.646 0.486l0.975 1.337-0.451 0.017zM19.708 2.080c0.1-0.094 0.178-0.211 0.227-0.34s0.069-0.269 0.057-0.408c0.003-0.139-0.025-0.278-0.082-0.405s-0.141-0.238-0.246-0.327c-0.257-0.179-0.565-0.261-0.874-0.234l-1.058 0.040 0.067 2 1.036-0.034c0.316 0.012 0.626-0.091 0.874-0.291z"></path>
                            <path d="M23.044 2.897l-0.201 1.366-0.407-0.063 0.206-1.343-1.153-2.857 0.434 0.069 0.986 2.434 1.671-2.017 0.39 0.086-1.927 2.326z"></path>
                            <path d="M28.552 2.657l0.485 0.646-0.212 0.171-0.485-0.663-0.306 0.749-0.234-0.103 0.312-0.749-0.802 0.109v-0.274l0.791-0.091-0.49-0.646 0.217-0.171 0.429 0.651 0.301-0.754 0.239 0.103-0.284 0.766 0.802-0.114v0.28l-0.763 0.091z"></path>
                            <path d="M30.412 7.263c-0.131-0.208-0.214-0.445-0.239-0.691l0.329-0.149c0.025 0.226 0.097 0.445 0.212 0.64 0.124 0.219 0.287 0.412 0.479 0.571 0.198 0.195 0.452 0.321 0.724 0.36 0.098 0.009 0.197-0.006 0.289-0.045s0.172-0.1 0.235-0.178c0.046-0.052 0.081-0.114 0.103-0.181s0.030-0.138 0.025-0.208c-0.018-0.139-0.064-0.273-0.134-0.394-0.105-0.175-0.218-0.345-0.34-0.509-0.148-0.199-0.282-0.409-0.401-0.629-0.091-0.164-0.14-0.349-0.145-0.537-0-0.212 0.077-0.416 0.217-0.571 0.121-0.151 0.282-0.264 0.462-0.326 0.202-0.060 0.416-0.060 0.618 0 0.26 0.087 0.501 0.227 0.707 0.411 0.172 0.146 0.323 0.315 0.451 0.503 0.118 0.174 0.207 0.367 0.262 0.571l-0.317 0.171c-0.055-0.19-0.138-0.371-0.245-0.537-0.107-0.148-0.232-0.281-0.373-0.394-0.196-0.194-0.448-0.317-0.718-0.349-0.099-0.009-0.199 0.008-0.291 0.049s-0.171 0.104-0.233 0.185c-0.047 0.051-0.083 0.113-0.105 0.18s-0.030 0.138-0.023 0.209c0.013 0.144 0.059 0.283 0.134 0.406 0.078 0.131 0.189 0.303 0.34 0.509 0.149 0.195 0.283 0.401 0.401 0.617 0.093 0.164 0.144 0.348 0.15 0.537 0 0.212-0.077 0.416-0.217 0.571-0.122 0.153-0.284 0.266-0.468 0.326-0.202 0.062-0.417 0.062-0.618 0-0.262-0.087-0.504-0.227-0.713-0.411-0.225-0.201-0.413-0.441-0.557-0.709z"></path>
                            <path d="M36.015 8.097l-0.785-1.143 0.29-0.211 1.81 2.651-0.29 0.211-0.785-1.143-2.907 2.086-0.234-0.349 2.901-2.103z"></path>
                            <path d="M34.767 12.794c0.099-0.345 0.293-0.655 0.557-0.891 0.259-0.238 0.574-0.401 0.913-0.474 0.346-0.082 0.708-0.068 1.047 0.040 0.328 0.111 0.621 0.308 0.852 0.571 0.24 0.283 0.403 0.626 0.473 0.994 0.092 0.361 0.092 0.741 0 1.103-0.102 0.344-0.295 0.652-0.557 0.891-0.266 0.244-0.589 0.413-0.937 0.491s-0.711 0.062-1.051-0.046c-0.33-0.106-0.625-0.304-0.852-0.571-0.239-0.282-0.402-0.622-0.473-0.989-0.085-0.37-0.075-0.755 0.028-1.12zM35.497 14.611c0.186 0.217 0.427 0.377 0.696 0.463 0.278 0.083 0.571 0.092 0.853 0.028s0.544-0.199 0.762-0.394c0.206-0.194 0.357-0.441 0.44-0.714 0.078-0.289 0.085-0.593 0.022-0.886s-0.195-0.565-0.384-0.794c-0.194-0.218-0.442-0.378-0.718-0.463-0.281-0.077-0.577-0.077-0.858 0-0.284 0.056-0.546 0.192-0.757 0.394-0.207 0.195-0.359 0.444-0.44 0.72-0.076 0.29-0.076 0.596 0 0.886 0.061 0.284 0.194 0.546 0.384 0.76z"></path>
                            <path d="M34.344 19.429l1.442-0.571c0-0.103 0.033-0.206 0.061-0.314l0.273-1.034-1.181-0.314 0.106-0.406 3.765 1.034-0.379 1.446c-0.085 0.422-0.314 0.799-0.646 1.063-0.152 0.109-0.327 0.18-0.511 0.207s-0.371 0.012-0.547-0.047c-0.269-0.060-0.51-0.212-0.683-0.431s-0.268-0.492-0.27-0.775l-1.537 0.571 0.106-0.429zM36.209 19.589c0.065 0.121 0.154 0.228 0.26 0.314s0.229 0.148 0.359 0.184 0.267 0.044 0.401 0.024c0.134-0.020 0.262-0.067 0.378-0.139 0.246-0.203 0.414-0.488 0.473-0.806l0.267-1.029-1.888-0.52-0.267 1.029c-0.103 0.306-0.097 0.64 0.017 0.943z"></path>
                            <path d="M32.344 23.109l-0.284-0.223 1.671-2.257 3.108 2.417-1.615 2.189-0.284-0.223 1.364-1.846-1.114-0.863-1.22 1.651-0.278-0.217 1.247-1.651-1.153-0.897-1.442 1.92z"></path>
                            <path d="M31.041 27.663l-0.796 0.046v-0.274l0.796-0.006-0.429-0.68 0.217-0.143 0.423 0.686 0.345-0.766 0.239 0.131-0.379 0.72 0.796-0.046v0.28h-0.808l0.429 0.68-0.217 0.143-0.423-0.686-0.368 0.743-0.234-0.137 0.407-0.691z"></path>
                            <path d="M23.802 27.206l0.674 0.383c0.113-0.223 0.271-0.418 0.463-0.574s0.414-0.268 0.651-0.329c0.221-0.071 0.454-0.096 0.685-0.074 0.2 0.016 0.393 0.087 0.557 0.206 0.148 0.115 0.258 0.275 0.312 0.457 0.067 0.226 0.055 0.468-0.033 0.686-0.14 0.296-0.328 0.564-0.557 0.794 0.184 0.101 0.354 0.226 0.507 0.371 0.105 0.111 0.183 0.246 0.228 0.394 0.029 0.115 0.030 0.236 0.005 0.352s-0.076 0.225-0.15 0.317c-0.149 0.22-0.37 0.376-0.624 0.44-0.222 0.087-0.468 0.087-0.691 0-0.099-0.044-0.187-0.11-0.256-0.194s-0.119-0.184-0.145-0.291c-0.058-0.189-0.044-0.393 0.039-0.571 0.128-0.26 0.295-0.497 0.496-0.703l-1.342-0.766c-0.051 0.269-0.062 0.545-0.033 0.817h-0.34c-0.023-0.336 0.015-0.673 0.111-0.994l-0.702-0.4 0.145-0.32zM24.771 27.777l1.476 0.84c0.193-0.189 0.354-0.412 0.473-0.657 0.061-0.166 0.061-0.349 0-0.514-0.025-0.099-0.074-0.19-0.142-0.265s-0.153-0.131-0.248-0.164c-0.231-0.080-0.482-0.080-0.713 0-0.189 0.051-0.365 0.144-0.515 0.273s-0.271 0.289-0.354 0.47l0.022 0.017zM26.865 30.063c0.036-0.063 0.059-0.134 0.067-0.206s0-0.147-0.022-0.216c-0.034-0.113-0.095-0.215-0.178-0.297-0.142-0.123-0.297-0.228-0.462-0.314-0.169 0.171-0.317 0.363-0.44 0.571-0.067 0.13-0.083 0.281-0.045 0.423 0.018 0.065 0.049 0.126 0.091 0.178s0.095 0.095 0.154 0.124c0.142 0.055 0.298 0.055 0.44 0 0.151-0.041 0.284-0.137 0.373-0.269l0.022 0.006z"></path>
                            <path d="M17.013 31.611l0.078-4h0.395l-0.061 3.2 1.582-2.663h0.195l1.481 2.709 0.056-3.183h0.395l-0.072 4h-0.34l-1.637-2.989-1.732 2.931-0.34-0.006z"></path>
                            <path d="M15.075 27.429c0.255 0.249 0.437 0.566 0.526 0.915s0.083 0.717-0.020 1.062c-0.091 0.354-0.274 0.675-0.529 0.931-0.248 0.25-0.558 0.424-0.897 0.503-0.357 0.083-0.729 0.071-1.080-0.034-0.35-0.088-0.673-0.267-0.936-0.52-0.251-0.246-0.43-0.558-0.518-0.903-0.086-0.356-0.079-0.729 0.018-1.082s0.283-0.673 0.538-0.93c0.243-0.249 0.547-0.427 0.88-0.514 0.355-0.082 0.725-0.071 1.075 0.034 0.354 0.092 0.678 0.277 0.941 0.537zM13.176 27.229c-0.272 0.065-0.521 0.208-0.718 0.411-0.205 0.21-0.351 0.472-0.423 0.76-0.078 0.286-0.078 0.588 0 0.874 0.066 0.278 0.207 0.532 0.406 0.731 0.21 0.21 0.469 0.362 0.752 0.44 0.283 0.074 0.58 0.074 0.863 0 0.273-0.069 0.523-0.211 0.724-0.411 0.204-0.21 0.35-0.473 0.423-0.76 0.078-0.288 0.078-0.592 0-0.88-0.071-0.277-0.214-0.53-0.412-0.731-0.211-0.211-0.472-0.36-0.757-0.434-0.281-0.080-0.577-0.080-0.858 0z"></path>
                            <path d="M8.96 24.571l0.15 1.571c0.095 0.042 0.188 0.090 0.278 0.143l0.908 0.537 0.613-1.109 0.362 0.211-1.949 3.446-1.27-0.749c-0.375-0.193-0.671-0.517-0.835-0.914-0.061-0.179-0.081-0.369-0.060-0.557s0.084-0.369 0.182-0.529c0.129-0.25 0.335-0.451 0.585-0.571 0.254-0.108 0.535-0.13 0.802-0.063l-0.162-1.68 0.395 0.263zM8.326 26.377c-0.131 0.034-0.254 0.094-0.361 0.178s-0.197 0.188-0.265 0.308c-0.067 0.12-0.11 0.253-0.126 0.39s-0.005 0.277 0.033 0.41c0.131 0.296 0.357 0.536 0.64 0.68l0.897 0.531 0.975-1.714-0.897-0.531c-0.258-0.198-0.575-0.297-0.897-0.28v0.029z"></path>
                            <path d="M5.663 21.891l0.251-0.257 1.921 2.029-2.785 2.789-1.854-1.966 0.256-0.257 1.576 1.663 0.952-0.989-1.381-1.474 0.267-0.263 1.409 1.486 1.036-1.034-1.648-1.726z"></path>
                            <path d="M1.525 19.646l0.134-0.789 0.262 0.040-0.15 0.811 0.741-0.28 0.089 0.251-0.752 0.263 0.618 0.537-0.178 0.206-0.596-0.571-0.139 0.811-0.267-0.051 0.156-0.811-0.746 0.274-0.084-0.223 0.746-0.269-0.618-0.531 0.184-0.206 0.601 0.537z"></path>
                            </symbol>
</defs>
</svg>
